<svg id="Layer_1" data-name="Layer 1" xmlns="http://www.w3.org/2000/svg" viewBox="0 0 998.29 222.78"><defs><style>.cls-1{fill:#56be08;}.cls-1,.cls-2,.cls-4,.cls-5{fill-rule:evenodd;}.cls-2{fill:#161717;}.cls-3{stroke:#000;stroke-width:0.57px;}.cls-5{fill:#121212;}</style></defs><path class="cls-1" d="M898.2,42.82l56.23-.43,56.72,56.23-57,56.66-56,.25L954.62,99Z" transform="translate(-12.86 -16.52)"/><path class="cls-2" d="M935.3,22.78l8.77,9.14-190.8-4.15Z" transform="translate(-12.86 -16.52)"/><path class="cls-3" d="M935.3,22.78l8.77,9.14-190.8-4.15Z" transform="translate(-12.86 -16.52)"/><path class="cls-2" d="M861.83,19.91l-2.8-3.1L757.85,18.08Z" transform="translate(-12.86 -16.52)"/><path class="cls-3" d="M861.83,19.91l-2.8-3.1L757.85,18.08Z" transform="translate(-12.86 -16.52)"/><path class="cls-2" d="M577.64,166.3l221-3.9-9.51,8.53Z" transform="translate(-12.86 -16.52)"/><path class="cls-3" d="M577.64,166.3l221-3.9-9.51,8.53Z" transform="translate(-12.86 -16.52)"/><path class="cls-2" d="M556.78,171.45l-4.88,5.12-115.5-1.95Z" transform="translate(-12.86 -16.52)"/><path class="cls-3" d="M556.78,171.45l-4.88,5.12-115.5-1.95Z" transform="translate(-12.86 -16.52)"/><path class="cls-2" d="M741.73,146.35l-6.58,7.8L216.36,152Z" transform="translate(-12.86 -16.52)"/><path class="cls-3" d="M741.73,146.35l-6.58,7.8L216.36,152Z" transform="translate(-12.86 -16.52)"/><path class="cls-2" d="M135.55,66.7l60.92-1.34-1.1,4.51Z" transform="translate(-12.86 -16.52)"/><path class="cls-3" d="M135.55,66.7l60.92-1.34-1.1,4.51Z" transform="translate(-12.86 -16.52)"/><path class="cls-2" d="M189.64,94.11l.12,4.15L12.86,96.18Z" transform="translate(-12.86 -16.52)"/><path class="cls-3" d="M189.64,94.11l.12,4.15L12.86,96.18Z" transform="translate(-12.86 -16.52)"/><path class="cls-2" d="M183.67,124.32l-1.46,8.16L41.49,128Z" transform="translate(-12.86 -16.52)"/><path class="cls-3" d="M183.67,124.32l-1.46,8.16L41.49,128Z" transform="translate(-12.86 -16.52)"/><path class="cls-2" d="M732.53,41.49l8.41,9.87L489.46,45.87Z" transform="translate(-12.86 -16.52)"/><path class="cls-3" d="M732.53,41.49l8.41,9.87L489.46,45.87Z" transform="translate(-12.86 -16.52)"/><path class="cls-1" d="M826.16,42.82l56.23-.43L939.1,98.62l-57,56.66-56.05.25L882.56,99Z" transform="translate(-12.86 -16.52)"/><path class="cls-1" d="M753,41.47l56.23-.42L865.9,97.28l-57,56.65-56,.25,56.53-56.57Z" transform="translate(-12.86 -16.52)"/><path class="cls-1" d="M221.79,104.77h13.84c15.53,0,21.22-16.08,22.33-22.46,2.4-13.83-2.81-22.56-14-22.56H217.57L205.3,130.17h12.06Zm2.11-12.16,3.61-20.7h9.58c7.49,0,10.13,2.84,8.94,9.71-.54,3.14-1.91,11-10.93,11H223.9ZM267.46,78l-9.09,52.17h11.24L278.71,78ZM282,59.07H270.76l-2.22,12.75H279.8Zm44.23,45c3.29-18.83-5.57-27.46-17.08-27.46s-23.38,8.63-26.64,27.46,5.56,27.46,17.07,27.46,23.37-8.63,26.65-27.46Zm-11.56,0c-1.18,6.67-4.38,15.89-13.07,15.89s-8.69-9.22-7.53-15.89,4.38-15.89,13.07-15.89,8.69,9.22,7.53,15.89Zm59.88-10c2-11.47-3.47-17.46-11.83-17.46-8.14,0-12.39,5.88-14.47,9h-.16L349.43,78H338.66l-9.09,52.17h11.24L346,100.25c1.39-7.94,6-12.06,11-12.06,7.16,0,6.19,6.47,5.52,10.3L357,130.17h11.24Zm32,20.79a9.12,9.12,0,0,1-8.24,5.69c-9.1,0-8.2-8.83-7.84-12.75h29.35l.43-2.45c4.16-23.83-6.64-28.73-15.08-28.73-18.74,0-24,20.1-25.09,26.38-3.74,21.48,4.26,28.54,16.33,28.54,7.32,0,16.56-4.12,21.7-16.67H406.58Zm-14.21-16c1.85-6.86,5.38-11,10.69-11,3.63,0,7.62,2.55,6.78,11Zm58.93,16a9.12,9.12,0,0,1-8.24,5.69c-9.1,0-8.2-8.83-7.84-12.75h29.36l.42-2.45c4.15-23.83-6.63-28.73-15.09-28.73-18.73,0-24,20.1-25.09,26.38-3.75,21.48,4.26,28.54,16.33,28.54,7.32,0,16.56-4.12,21.71-16.67H451.3Zm-14.2-16c1.85-6.86,5.38-11,10.69-11,3.63,0,7.62,2.55,6.78,11Zm31,31.29H479.3L484,103c1-5.78,3.78-12.45,12.56-12.45a16.26,16.26,0,0,1,3.17.2l2.44-13.92a15.2,15.2,0,0,0-2.14-.2c-6.83,0-10.3,5.1-13.55,10.39h-.16l1.57-9H477.16Z" transform="translate(-12.86 -16.52)"/><path class="cls-4" d="M526.26,95C520.48,128,539.89,132,547.54,132S576,128,581.75,95,568.12,57.9,560.47,57.9,532,61.92,526.26,95Zm12,0c3.43-19.72,13.47-24.62,20-24.62s14.84,4.9,11.41,24.62-13.47,24.62-20,24.62S534.88,114.68,538.31,95Zm91.07-.88c2-11.47-3.47-17.46-11.84-17.46-8.14,0-12.39,5.88-14.46,9h-.16L604.24,78H593.47l-9.09,52.17h11.25l5.21-29.92c1.39-7.94,6-12.06,11-12.06,7.16,0,6.19,6.47,5.52,10.3l-5.51,31.68h11.24Zm27.94-34.33H646.06L633.8,130.18h11.25ZM665.25,78l-9.09,52.17h11.25L676.51,78Zm14.57-18.93H668.56l-2.22,12.75H677.6Zm43.41,35c2-11.47-3.47-17.46-11.83-17.46-8.14,0-12.39,5.88-14.46,9h-.16L698.1,78H687.33l-9.09,52.17h11.24l5.22-29.92c1.39-7.94,6-12.06,11-12.06,7.16,0,6.19,6.47,5.52,10.3l-5.51,31.68h11.24Zm32,20.79a9.12,9.12,0,0,1-8.24,5.69c-9.1,0-8.2-8.83-7.84-12.75h29.36l.43-2.45c4.15-23.83-6.64-28.73-15.09-28.73-18.73,0-24,20.1-25.09,26.38C725,124.5,733,131.56,745.1,131.56c7.32,0,16.56-4.12,21.71-16.67H755.24ZM741,98.89c1.85-6.86,5.38-11,10.69-11,3.63,0,7.62,2.55,6.78,11Z" transform="translate(-12.86 -16.52)"/><path class="cls-5" d="M361,211.51c-1.43,8.2-6.21,14.17-12.42,14.17s-8.91-6-7.48-14.17,6.21-14.17,12.42-14.17,8.91,6,7.48,14.17Zm4,0c1.32-7.52-.06-18.34-10.73-18.34S338.45,204,337.14,211.51s.06,18.35,10.73,18.35S363.68,219,365,211.51Zm21.09.14c1.26-7.23-2.51-8.83-5.75-8.83-3.6,0-6.07,3-7.07,4.31h-.08l.63-3.59h-3.29l-4.43,25.38h3.49L372,215.09c1.19-6.9,5-8.45,7-8.45,3.44,0,4.09,2.24,3.32,6.65l-2.73,15.63h3.49Zm13.6-4.56.62-3.54H397l1.23-7.09H394.7l-1.24,7.09h-2.82l-.61,3.54h2.82l-2.92,16.74c-.53,3-.19,5.43,3.26,5.43.35,0,1.38-.2,2.68-.34l.58-3.35h-1.24c-.71,0-2.1,0-1.75-2l2.87-16.5h3.35Zm7.61-3.54H403.8l-4.43,25.38h3.49Zm.8-4.61.84-4.86h-3.49l-.84,4.86Zm0,30h3.49L414,215.1c1.2-6.9,5-8.45,7-8.45,2.59,0,2.83,2.57,2.46,4.71l-3.06,17.57h3.49l2.69-15.48c.6-3.39,3.15-6.79,6.1-6.79s3.46,2.38,2.85,5.87l-2.86,16.4h3.49l3.05-17.57c1.24-7.14-2.72-8.54-5-8.54-3.24,0-4.93,1.75-7.1,4.12-.35-1.36-1.07-4.12-4.81-4.12s-6.07,3-7.06,4.31h-.09l.63-3.59h-3.29Zm48.7-8c-.45,1.89-2.93,5-6.23,5-4,0-5.51-3.05-4.59-8.35h15.19c1.56-9-.37-14.8-6.38-14.8-6.87,0-11.06,6.26-12.42,14.12-1.28,7.33,1.24,12.72,7.08,12.72a9,9,0,0,0,5.94-1.75,14.42,14.42,0,0,0,4.91-6.94Zm-10.23-6.75c.69-3.93,3.87-7.57,7.09-7.57,4.24,0,5,3.64,4.48,7.57Zm22,9.56h-4.12l-.9,5.15h4.13Zm36,1H487.3l2-11.65H505l.72-4.18H490.06l1.86-10.68h16.95l.73-4.18H488.78l-6.07,34.85h21.11Zm12-.54h-.08l-1.81-20.68h-4.06l3.18,25.38h3.74l12.34-25.38h-3.82Zm26.1-3.25c-.45,1.89-2.93,5-6.23,5-4,0-5.51-3.05-4.59-8.35H547c1.56-9-.37-14.8-6.38-14.8-6.86,0-11.06,6.26-12.42,14.12-1.28,7.33,1.24,12.72,7.07,12.72a9.07,9.07,0,0,0,6-1.75,14.35,14.35,0,0,0,4.91-6.94Zm-10.23-6.75c.68-3.93,3.87-7.57,7.08-7.57,4.25,0,5,3.64,4.49,7.57Zm23.36-.05c.64-3.69,3.26-6.79,6.51-6.79h1.32l.77-4.41a2.15,2.15,0,0,0-.89-.14c-2.63,0-4.81,2-6.71,4.94h-.09l.74-4.22h-3.29l-4.43,25.38h3.49Zm16.43,10.05h-.09l-1.93-20.68h-4l3.18,26.06c-2.59,5.24-2.9,5.87-4.72,5.87a4.49,4.49,0,0,1-2-.44L562,239a5.33,5.33,0,0,0,1.42.34c4.49,0,4.94-.58,10-10.87,4.12-8.3,8-16.6,11.83-24.9h-3.87Zm23.09-17.13.61-3.54h-3.34l1.23-7.09h-3.49l-1.23,7.09h-2.83l-.62,3.54h2.82l-2.92,16.74c-.53,3-.2,5.43,3.26,5.43.36,0,1.39-.2,2.69-.34l.58-3.35h-1.24c-.71,0-2.11,0-1.75-2l2.87-16.5h3.36Zm7.61-3.54h-3.49L595,228.93h3.49Zm.8-4.61.84-4.86h-3.49l-.84,4.86Zm0,30h3.49l2.42-13.83c1.19-6.9,5-8.45,7-8.45,2.59,0,2.83,2.57,2.46,4.71L616,228.93h3.49l2.7-15.48c.6-3.39,3.15-6.79,6.1-6.79s3.46,2.38,2.85,5.87l-2.87,16.4h3.5l3.05-17.57c1.24-7.14-2.72-8.54-5-8.54-3.24,0-4.93,1.75-7.1,4.12-.35-1.36-1.06-4.12-4.81-4.12s-6.07,3-7.07,4.31h-.08l.63-3.59h-3.29Zm48.7-8c-.45,1.89-2.93,5-6.23,5-4,0-5.51-3.05-4.59-8.35h15.19c1.56-9-.37-14.8-6.37-14.8-6.87,0-11.06,6.26-12.42,14.12-1.28,7.33,1.24,12.72,7.07,12.72a9.07,9.07,0,0,0,5.95-1.75A14.28,14.28,0,0,0,656,221Zm-10.23-6.75c.68-3.93,3.87-7.57,7.08-7.57,4.25,0,5,3.64,4.48,7.57Z" transform="translate(-12.86 -16.52)"/></svg>